<svg xmlns="http://www.w3.org/2000/svg" xmlns:xlink="http://www.w3.org/1999/xlink" contentStyleType="text/css" data-diagram-type="ACTIVITY" height="2380px" preserveAspectRatio="none" style="width:1545px;height:2380px;" version="1.1" viewBox="0 0 1545 2380" width="1545.8333px" zoomAndPan="magnify"><?plantuml 1.2026.3beta6?><defs/><g><rect fill="#FFFFCC" height="48.5352" rx="7.2917" ry="7.2917" style="stroke:#FFDD88;stroke-width:8.75;" width="1485.3013" x="23.3333" y="23.3333"/><text fill="#000000" font-family="monospace" font-size="29.1667" lengthAdjust="spacing" textLength="1036.0291" x="43.75" y="54.3685">Please&#160;use&#160;'!option&#160;handwritten&#160;true'&#160;to&#160;enable&#160;handwritten</text><rect fill="#003153" height="895.7357" style="stroke:#D9D3D0;stroke-width:2.9167;" width="701.7204" x="130.461" y="95.2018"/><path d="M322.9603,95.2018 L322.9603,122.3177 L293.7936,151.4844 L130.461,151.4844" fill="none" style="stroke:#D9D3D0;stroke-width:2.9167;"/><text fill="#D9D3D0" font-family="Microsoft YaHei UI" font-size="40.8333" lengthAdjust="spacing" textLength="163.3326" x="139.211" y="136.0209">&#20889;&#20837;&#37197;&#32622;</text><ellipse cx="481.3212" cy="209.8177" fill="#003153" rx="29.1667" ry="29.1667" style="stroke:#D9D3D0;stroke-width:2.9167;"/><rect fill="#003153" height="139.8177" rx="36.4583" ry="36.4583" style="stroke:#000000;stroke-width:2.9167;" width="539.9422" x="211.3501" y="297.3177"/><text fill="#D9D3D0" font-family="Microsoft YaHei UI" font-size="35" lengthAdjust="spacing" textLength="481.6089" x="240.5168" y="358.9722">prefs.begin("config", false);</text><text fill="#D9D3D0" font-family="Microsoft YaHei UI" font-size="35" lengthAdjust="spacing" textLength="210.0016" x="240.5168" y="399.7144">&#25171;&#24320;&#21629;&#21517;&#31354;&#38388;</text><rect fill="#003153" height="139.8177" rx="36.4583" ry="36.4583" style="stroke:#000000;stroke-width:2.9167;" width="643.387" x="159.6277" y="495.4688"/><text fill="#D9D3D0" font-family="Microsoft YaHei UI" font-size="35" lengthAdjust="spacing" textLength="585.0537" x="188.7944" y="557.1232">prefs.putInt("sustainmin", value);</text><text fill="#D9D3D0" font-family="Microsoft YaHei UI" font-size="35" lengthAdjust="spacing" textLength="140.0011" x="188.7944" y="597.8654">&#20889;&#20837;&#21442;&#25968;</text><rect fill="#003153" height="139.8177" rx="36.4583" ry="36.4583" style="stroke:#000000;stroke-width:2.9167;" width="263.1893" x="349.7266" y="693.6198"/><text fill="#D9D3D0" font-family="Microsoft YaHei UI" font-size="35" lengthAdjust="spacing" textLength="204.856" x="378.8932" y="755.2743">prefs.end();</text><text fill="#D9D3D0" font-family="Microsoft YaHei UI" font-size="35" lengthAdjust="spacing" textLength="175.0013" x="378.8932" y="796.0164">&#20851;&#38381;&#24182;&#20445;&#23384;</text><ellipse cx="481.3212" cy="923.8542" fill="none" rx="32.0833" ry="32.0833" style="stroke:#D9D3D0;stroke-width:2.9167;"/><ellipse cx="481.3212" cy="923.8542" fill="#003153" rx="17.5" ry="17.5" style="stroke:#D9D3D0;stroke-width:2.9167;"/><rect fill="#003153" height="1317.0801" style="stroke:#D9D3D0;stroke-width:2.9167;" width="1470.718" x="32.0833" y="1020.1042"/><path d="M224.5826,1020.1042 L224.5826,1047.2201 L195.416,1076.3867 L32.0833,1076.3867" fill="none" style="stroke:#D9D3D0;stroke-width:2.9167;"/><text fill="#D9D3D0" font-family="Microsoft YaHei UI" font-size="40.8333" lengthAdjust="spacing" textLength="163.3326" x="40.8333" y="1060.9233">&#35835;&#21462;&#37197;&#32622;</text><ellipse cx="481.3212" cy="1134.7201" fill="#003153" rx="29.1667" ry="29.1667" style="stroke:#D9D3D0;stroke-width:2.9167;"/><rect fill="#003153" height="139.8177" rx="36.4583" ry="36.4583" style="stroke:#000000;stroke-width:2.9167;" width="539.9422" x="211.3501" y="1222.2201"/><text fill="#D9D3D0" font-family="Microsoft YaHei UI" font-size="35" lengthAdjust="spacing" textLength="481.6089" x="240.5168" y="1283.8745">prefs.begin("config", false);</text><text fill="#D9D3D0" font-family="Microsoft YaHei UI" font-size="35" lengthAdjust="spacing" textLength="210.0016" x="240.5168" y="1324.6167">&#25171;&#24320;&#21629;&#21517;&#31354;&#38388;</text><rect fill="#003153" height="139.8177" rx="36.4583" ry="36.4583" style="stroke:#000000;stroke-width:2.9167;" width="840.1424" x="61.25" y="1420.3711"/><text fill="#D9D3D0" font-family="Microsoft YaHei UI" font-size="35" lengthAdjust="spacing" textLength="781.8091" x="90.4167" y="1482.0256">int value = prefs.getInt("sustainmin", 5000);</text><text fill="#D9D3D0" font-family="Microsoft YaHei UI" font-size="35" lengthAdjust="spacing" textLength="307.3117" x="90.4167" y="1522.7677">&#35835;&#21462;&#21442;&#25968;(&#24102;&#40664;&#35748;&#20540;)</text><rect fill="#003153" height="139.8177" rx="36.4583" ry="36.4583" style="stroke:#000000;stroke-width:2.9167;" width="263.1893" x="349.7266" y="1618.5221"/><text fill="#D9D3D0" font-family="Microsoft YaHei UI" font-size="35" lengthAdjust="spacing" textLength="204.856" x="378.8932" y="1680.1766">prefs.end();</text><text fill="#D9D3D0" font-family="Microsoft YaHei UI" font-size="35" lengthAdjust="spacing" textLength="70.0005" x="378.8932" y="1720.9188">&#20851;&#38381;</text><path d="M571.7379,1787.5065 L571.7379,2033.1787 L513.4045,2044.8454 L571.7379,2056.512 L571.7379,2302.1842 A0,0 0 0 0 571.7379,2302.1842 L1473.6346,2302.1842 A0,0 0 0 0 1473.6346,2302.1842 L1473.6346,1816.6732 L1444.468,1787.5065 L571.7379,1787.5065 A0,0 0 0 0 571.7379,1787.5065" fill="#003153" style="stroke:#D9D3D0;stroke-width:2.9167;"/><path d="M1444.468,1787.5065 L1444.468,1816.6732 L1473.6346,1816.6732 L1444.468,1787.5065" fill="#003153" style="stroke:#D9D3D0;stroke-width:2.9167;"/><text fill="#D9D3D0" font-family="Microsoft YaHei UI" font-size="37.9167" lengthAdjust="spacing" textLength="829.6495" x="589.2379" y="1837.285">&#23384;&#20648;&#20301;&#32622;: NVS &#20998;&#21306; (0x9000 - 0xDFFF, 20KB)</text><text fill="#D9D3D0" font-family="Microsoft YaHei UI" font-size="37.9167" lengthAdjust="spacing" textLength="12.0526" x="589.2379" y="1881.4223">&#160;</text><text fill="#D9D3D0" font-family="Microsoft YaHei UI" font-size="37.9167" lengthAdjust="spacing" textLength="164.4415" x="589.2379" y="1925.5597">&#23384;&#20648;&#38190;&#21517;:</text><text fill="#D9D3D0" font-family="Microsoft YaHei UI" font-size="37.9167" lengthAdjust="spacing" textLength="739.005" x="589.2379" y="1969.6971">&#8226; sustainmin/sustainmax - &#24310;&#38899;&#36367;&#26495;&#33539;&#22260;</text><text fill="#D9D3D0" font-family="Microsoft YaHei UI" font-size="37.9167" lengthAdjust="spacing" textLength="840.6467" x="589.2379" y="2013.8344">&#8226; sostenutomin/sostenutomax - &#25345;&#38899;&#36367;&#26495;&#33539;&#22260;</text><text fill="#D9D3D0" font-family="Microsoft YaHei UI" font-size="37.9167" lengthAdjust="spacing" textLength="608.9256" x="589.2379" y="2057.9718">&#8226; softmin/softmax - &#24369;&#38899;&#36367;&#26495;&#33539;&#22260;</text><text fill="#D9D3D0" font-family="Microsoft YaHei UI" font-size="37.9167" lengthAdjust="spacing" textLength="449.5572" x="589.2379" y="2102.1092">&#8226; blactive - &#34013;&#29273;&#24320;&#20851;&#29366;&#24577;</text><text fill="#D9D3D0" font-family="Microsoft YaHei UI" font-size="37.9167" lengthAdjust="spacing" textLength="771.6636" x="589.2379" y="2146.2465">&#8226; halfLower_mV/halfUpper_mV - &#21322;&#36367;&#33539;&#22260;</text><text fill="#D9D3D0" font-family="Microsoft YaHei UI" font-size="37.9167" lengthAdjust="spacing" textLength="440.189" x="589.2379" y="2190.3839">&#8226; halfVoltage - &#21322;&#36367;&#30005;&#21387;</text><text fill="#D9D3D0" font-family="Microsoft YaHei UI" font-size="37.9167" lengthAdjust="spacing" textLength="524.076" x="589.2379" y="2234.5213">&#8226; halfEnabled - &#21322;&#36367;&#27169;&#24335;&#24320;&#20851;</text><text fill="#D9D3D0" font-family="Microsoft YaHei UI" font-size="37.9167" lengthAdjust="spacing" textLength="614.8685" x="589.2379" y="2278.6587">&#8226; maxDACVoltage - &#26368;&#22823;DAC&#30005;&#21387;</text><ellipse cx="481.3212" cy="2044.8454" fill="none" rx="32.0833" ry="32.0833" style="stroke:#D9D3D0;stroke-width:2.9167;"/><ellipse cx="481.3212" cy="2044.8454" fill="#003153" rx="17.5" ry="17.5" style="stroke:#D9D3D0;stroke-width:2.9167;"/><line style="stroke:#000000;stroke-width:2.9167;" x1="481.3212" x2="481.3212" y1="238.9844" y2="297.3177"/><polygon fill="#000000" points="469.6545,268.151,481.3212,297.3177,492.9879,268.151,481.3212,279.8177" style="stroke:#000000;stroke-width:2.9167;"/><line style="stroke:#000000;stroke-width:2.9167;" x1="481.3212" x2="481.3212" y1="437.1354" y2="495.4688"/><polygon fill="#000000" points="469.6545,466.3021,481.3212,495.4688,492.9879,466.3021,481.3212,477.9688" style="stroke:#000000;stroke-width:2.9167;"/><line style="stroke:#000000;stroke-width:2.9167;" x1="481.3212" x2="481.3212" y1="635.2865" y2="693.6198"/><polygon fill="#000000" points="469.6545,664.4531,481.3212,693.6198,492.9879,664.4531,481.3212,676.1198" style="stroke:#000000;stroke-width:2.9167;"/><line style="stroke:#000000;stroke-width:2.9167;" x1="481.3212" x2="481.3212" y1="833.4375" y2="891.7708"/><polygon fill="#000000" points="469.6545,862.6042,481.3212,891.7708,492.9879,862.6042,481.3212,874.2708" style="stroke:#000000;stroke-width:2.9167;"/><line style="stroke:#000000;stroke-width:2.9167;" x1="481.3212" x2="481.3212" y1="1163.8867" y2="1222.2201"/><polygon fill="#000000" points="469.6545,1193.0534,481.3212,1222.2201,492.9879,1193.0534,481.3212,1204.7201" style="stroke:#000000;stroke-width:2.9167;"/><line style="stroke:#000000;stroke-width:2.9167;" x1="481.3212" x2="481.3212" y1="1362.0378" y2="1420.3711"/><polygon fill="#000000" points="469.6545,1391.2044,481.3212,1420.3711,492.9879,1391.2044,481.3212,1402.8711" style="stroke:#000000;stroke-width:2.9167;"/><line style="stroke:#000000;stroke-width:2.9167;" x1="481.3212" x2="481.3212" y1="1560.1888" y2="1618.5221"/><polygon fill="#000000" points="469.6545,1589.3555,481.3212,1618.5221,492.9879,1589.3555,481.3212,1601.0221" style="stroke:#000000;stroke-width:2.9167;"/><line style="stroke:#000000;stroke-width:2.9167;" x1="481.3212" x2="481.3212" y1="1758.3398" y2="2012.762"/><polygon fill="#000000" points="469.6545,1983.5954,481.3212,2012.762,492.9879,1983.5954,481.3212,1995.262" style="stroke:#000000;stroke-width:2.9167;"/><?plantuml-src hL9FQnD15B_dKumv9L3jKX0qmODj31Qr5sb146IIdTqCtSmiixDDH8Iq9SNMn2YjjaM3A5NheL593RL9w7UHpYRxBPpDfia6afuypRvvltzlvrtX6PH586NOo6IOy92rZ8a96Sm2rSHWveOIk4d1zBBEg4tKEMfG1ZY3n98jDCf36hGDdgI4Bq2f_G2d6RMeni4ZU1TXi3WV0CCqnokOFvsbJ4NCbqqPqYU8OOpcBcbvJXFQVVK4XbbAr4jDHg53pLm6SpGkCPoWb854pJ7CEI90WuQ5GY7Pu9XZIa1OREoBuXUtMEwqQs7mB0I0nMLNdZ6J8Sswba8w9f5mcX8Dw-4fNo8QVqoSpMtHAeWtRV6wtFb-wkuUnuSiq-RpX4V2bYtbCCbY8gahK3whH_LDHMNDUVipG494ZVJQnRgxUoJ-DCxFgk9eBzuBHStGyv7atHzDKNdt7vFBTVCZWbl0Lz3Hc2ckAuhYgVZ-_X0HSVBLRUvrQmUYq8fE72au2Q4S0ORrZ9TOJYdM3i_RtYmniB3q48WN6w9q2Y9A_gRq0rU1aayaayafCAFScurAoe3bxjJa735P_ory1iEeqnUVC2_fejbmFzQx9nMdUjOjhOltnnS4QidDi3djKGP5Z-IKLYUHDExZvUdhjtwDXthhA3SKIKntkzhPtFT-VR7UsMeuXTK-9WCDxJxD8VOakpJj5OkcsIiyuVAML1sHz11BrE1GHmD0P-UtUFKo0BX3OCf0wW3W77uIhOflteV9v8dRSqCbvqD177oJLtqn-NZ0UwP_?></g></svg>