<svg xmlns="http://www.w3.org/2000/svg" xmlns:xlink="http://www.w3.org/1999/xlink" contentStyleType="text/css" data-diagram-type="ACTIVITY" height="1163.75px" preserveAspectRatio="none" style="width:1370px;height:1163px;" version="1.1" viewBox="0 0 1370 1163" width="1370.8333px" zoomAndPan="magnify"><?plantuml 1.2026.3beta6?><defs/><g><ellipse cx="566.6749" cy="58.3333" fill="#003153" rx="29.1667" ry="29.1667" style="stroke:#D9D3D0;stroke-width:2.9167;"/><rect fill="#003153" height="99.0755" rx="36.4583" ry="36.4583" style="stroke:#000000;stroke-width:2.9167;" width="383.6233" x="374.8633" y="145.8333"/><text fill="#D9D3D0" font-family="Microsoft YaHei UI" font-size="35" lengthAdjust="spacing" textLength="325.29" x="404.0299" y="207.4878">&#35835;&#21462;&#24310;&#38899;&#36367;&#26495; mV &#20540;</text><polygon fill="#003153" points="93.3333,303.2422,339.1741,303.2422,374.1741,338.2422,339.1741,373.2422,93.3333,373.2422,58.3333,338.2422,93.3333,303.2422" style="stroke:#000000;stroke-width:2.9167;"/><text fill="#000000" font-family="Microsoft YaHei UI" font-size="32.0833" lengthAdjust="spacing" textLength="32.0831" x="227.9204" y="403.0227">&#26159;</text><text fill="#FFFFFF" font-family="Microsoft YaHei UI" font-size="32.0833" lengthAdjust="spacing" textLength="245.8408" x="93.3333" y="349.3492">mV &lt; &#21322;&#36367;&#19979;&#38480;?</text><rect fill="#003153" height="139.8177" rx="36.4583" ry="36.4583" style="stroke:#000000;stroke-width:2.9167;" width="185.6703" x="123.4186" y="465.731"/><text fill="#D9D3D0" font-family="Microsoft YaHei UI" font-size="35" lengthAdjust="spacing" textLength="127.337" x="152.5852" y="527.3855">&#36755;&#20986; 0V</text><text fill="#D9D3D0" font-family="Microsoft YaHei UI" font-size="35" lengthAdjust="spacing" textLength="97.3101" x="152.5852" y="568.1276">(&#19981;&#36393;)</text><polygon fill="#003153" points="467.5075,303.2422,713.3482,303.2422,748.3482,338.2422,713.3482,373.2422,467.5075,373.2422,432.5075,338.2422,467.5075,303.2422" style="stroke:#000000;stroke-width:2.9167;"/><text fill="#000000" font-family="Microsoft YaHei UI" font-size="32.0833" lengthAdjust="spacing" textLength="32.0831" x="602.0945" y="403.0227">&#26159;</text><text fill="#FFFFFF" font-family="Microsoft YaHei UI" font-size="32.0833" lengthAdjust="spacing" textLength="245.8408" x="467.5075" y="349.3492">mV &gt; &#21322;&#36367;&#19978;&#38480;?</text><text fill="#000000" font-family="Microsoft YaHei UI" font-size="32.0833" lengthAdjust="spacing" textLength="32.0831" x="748.3482" y="330.6757">&#21542;</text><rect fill="#003153" height="139.8177" rx="36.4583" ry="36.4583" style="stroke:#000000;stroke-width:2.9167;" width="268.3349" x="456.2604" y="465.731"/><text fill="#D9D3D0" font-family="Microsoft YaHei UI" font-size="35" lengthAdjust="spacing" textLength="210.0016" x="485.427" y="527.3855">&#36755;&#20986;&#26368;&#22823;&#30005;&#21387;</text><text fill="#D9D3D0" font-family="Microsoft YaHei UI" font-size="35" lengthAdjust="spacing" textLength="132.3104" x="485.427" y="568.1276">(&#36393;&#21040;&#24213;)</text><rect fill="#003153" height="99.0755" rx="36.4583" ry="36.4583" style="stroke:#000000;stroke-width:2.9167;" width="268.3349" x="806.6816" y="476.1786"/><text fill="#D9D3D0" font-family="Microsoft YaHei UI" font-size="35" lengthAdjust="spacing" textLength="210.0016" x="835.8482" y="537.833">&#36755;&#20986;&#21322;&#36367;&#30005;&#21387;</text><path d="M657.0916,693.0487 L657.0916,894.5835 L598.7583,906.2502 L657.0916,917.9169 L657.0916,1119.4517 A0,0 0 0 0 657.0916,1119.4517 L1326.3789,1119.4517 A0,0 0 0 0 1326.3789,1119.4517 L1326.3789,722.2154 L1297.2122,693.0487 L657.0916,693.0487 A0,0 0 0 0 657.0916,693.0487" fill="#003153" style="stroke:#D9D3D0;stroke-width:2.9167;"/><path d="M1297.2122,693.0487 L1297.2122,722.2154 L1326.3789,722.2154 L1297.2122,693.0487" fill="#003153" style="stroke:#D9D3D0;stroke-width:2.9167;"/><text fill="#D9D3D0" font-family="Microsoft YaHei UI" font-size="37.9167" lengthAdjust="spacing" textLength="164.4415" x="674.5916" y="742.8271">&#19977;&#26723;&#36755;&#20986;:</text><text fill="#D9D3D0" font-family="Microsoft YaHei UI" font-size="37.9167" lengthAdjust="spacing" textLength="480.5682" x="674.5916" y="786.9645">&#8226; &#19981;&#36393; ~ &#21322;&#36367;&#19979;&#38480;: &#36755;&#20986; 0V</text><text fill="#D9D3D0" font-family="Microsoft YaHei UI" font-size="37.9167" lengthAdjust="spacing" textLength="476.3286" x="674.5916" y="831.1019">&#8226; &#21322;&#36367;&#33539;&#22260;&#20869;: &#36755;&#20986;&#21322;&#36367;&#30005;&#21387;</text><text fill="#D9D3D0" font-family="Microsoft YaHei UI" font-size="37.9167" lengthAdjust="spacing" textLength="608.0373" x="674.5916" y="875.2393">&#8226; &#21322;&#36367;&#19978;&#38480; ~ &#36393;&#21040;&#24213;: &#36755;&#20986;&#26368;&#22823;&#30005;&#21387;</text><text fill="#D9D3D0" font-family="Microsoft YaHei UI" font-size="37.9167" lengthAdjust="spacing" textLength="12.0526" x="674.5916" y="919.3766">&#160;</text><text fill="#D9D3D0" font-family="Microsoft YaHei UI" font-size="37.9167" lengthAdjust="spacing" textLength="164.4415" x="674.5916" y="963.514">&#40664;&#35748;&#37197;&#32622;:</text><text fill="#D9D3D0" font-family="Microsoft YaHei UI" font-size="37.9167" lengthAdjust="spacing" textLength="516.6148" x="674.5916" y="1007.6514">&#8226; &#21322;&#36367;&#33539;&#22260;: 1500 - 2500 mV</text><text fill="#D9D3D0" font-family="Microsoft YaHei UI" font-size="37.9167" lengthAdjust="spacing" textLength="297.1498" x="674.5916" y="1051.7887">&#8226; &#21322;&#36367;&#30005;&#21387;: 1.7V</text><text fill="#D9D3D0" font-family="Microsoft YaHei UI" font-size="37.9167" lengthAdjust="spacing" textLength="372.9833" x="674.5916" y="1095.9261">&#8226; &#26368;&#22823;&#36755;&#20986;&#30005;&#21387;: 1.9V</text><ellipse cx="566.6749" cy="906.2502" fill="none" rx="32.0833" ry="32.0833" style="stroke:#D9D3D0;stroke-width:2.9167;"/><ellipse cx="566.6749" cy="906.2502" fill="#003153" rx="17.5" ry="17.5" style="stroke:#D9D3D0;stroke-width:2.9167;"/><line style="stroke:#000000;stroke-width:2.9167;" x1="566.6749" x2="566.6749" y1="87.5" y2="145.8333"/><polygon fill="#000000" points="555.0083,116.6667,566.6749,145.8333,578.3416,116.6667,566.6749,128.3333" style="stroke:#000000;stroke-width:2.9167;"/><line style="stroke:#000000;stroke-width:2.9167;" x1="216.2537" x2="216.2537" y1="373.2422" y2="465.731"/><polygon fill="#000000" points="204.5871,436.5643,216.2537,465.731,227.9204,436.5643,216.2537,448.231" style="stroke:#000000;stroke-width:2.9167;"/><line style="stroke:#000000;stroke-width:2.9167;" x1="216.2537" x2="216.2537" y1="605.5487" y2="663.882"/><polygon fill="#000000" points="204.5871,634.7154,216.2537,663.882,227.9204,634.7154,216.2537,646.382" style="stroke:#000000;stroke-width:2.9167;"/><line style="stroke:#000000;stroke-width:2.9167;" x1="590.4278" x2="590.4278" y1="373.2422" y2="465.731"/><polygon fill="#000000" points="578.7612,436.5643,590.4278,465.731,602.0945,436.5643,590.4278,448.231" style="stroke:#000000;stroke-width:2.9167;"/><line style="stroke:#000000;stroke-width:2.9167;" x1="590.4278" x2="590.4278" y1="605.5487" y2="663.882"/><polygon fill="#000000" points="578.7612,634.7154,590.4278,663.882,602.0945,634.7154,590.4278,646.382" style="stroke:#000000;stroke-width:2.9167;"/><line style="stroke:#000000;stroke-width:2.9167;" x1="374.1741" x2="432.5075" y1="338.2422" y2="338.2422"/><polygon fill="#000000" points="403.3408,326.5755,432.5075,338.2422,403.3408,349.9089,415.0075,338.2422" style="stroke:#000000;stroke-width:2.9167;"/><line style="stroke:#000000;stroke-width:2.9167;" x1="566.6749" x2="566.6749" y1="244.9089" y2="259.4922"/><line style="stroke:#000000;stroke-width:2.9167;" x1="566.6749" x2="216.2537" y1="259.4922" y2="259.4922"/><line style="stroke:#000000;stroke-width:2.9167;" x1="216.2537" x2="216.2537" y1="259.4922" y2="303.2422"/><polygon fill="#000000" points="204.5871,274.0755,216.2537,303.2422,227.9204,274.0755,216.2537,285.7422" style="stroke:#000000;stroke-width:2.9167;"/><line style="stroke:#000000;stroke-width:2.9167;" x1="748.3482" x2="940.849" y1="338.2422" y2="338.2422"/><line style="stroke:#000000;stroke-width:2.9167;" x1="940.849" x2="940.849" y1="338.2422" y2="476.1786"/><polygon fill="#000000" points="929.1824,447.0119,940.849,476.1786,952.5157,447.0119,940.849,458.6786" style="stroke:#000000;stroke-width:2.9167;"/><line style="stroke:#000000;stroke-width:2.9167;" x1="940.849" x2="940.849" y1="575.2541" y2="663.882"/><polygon fill="#000000" points="929.1824,634.7154,940.849,663.882,952.5157,634.7154,940.849,646.382" style="stroke:#000000;stroke-width:2.9167;"/><line style="stroke:#000000;stroke-width:2.9167;" x1="216.2537" x2="940.849" y1="663.882" y2="663.882"/><line style="stroke:#000000;stroke-width:2.9167;" x1="566.6749" x2="566.6749" y1="663.882" y2="874.1669"/><polygon fill="#000000" points="555.0083,845.0002,566.6749,874.1669,578.3416,845.0002,566.6749,856.6669" style="stroke:#000000;stroke-width:2.9167;"/><?plantuml-src VP5RQnD168RlvrTylJAvK691rAqeg8XUw9q1mPj9ThOPkZkpp7unU2C1YOVMc8e7AYfIBHvkKi43QnFhVv7CTlTVE64swIwqXOKzlC_xljytku0j5Z1e-6qMAYwGH2jSX5JH0DoGm-APMk5BWpPNbfLi2_UIzAK2L5H4Hc9b7_DesyShKk0DQhAlywQIaVGGRj6hZCFDQmMODf7VuNZtebGkKpQsuPkU8gEKx1mXJPiEaVFqovm6KhX7bfJH_SnEYoCxQ69QIbgG8N8fe4M5sr4SaGdmg1ynSWmv-WnqVpMD1xetriFVoPTDFHvatL6w-uoG2Ab2ugJR8prufKU_ilVV3Pcy-mj17NHtl4Iu1nNpV2uFcSHhsUlr2rKmFqz09TdOhX809zrzhX_kGAr-MrGcSJ-DlrQN23CZvFRpS_lguVRaRLTlVTvxyLC_NJCv9aG_-gPtNkPHKD7hdmguJRIu8OJBFREF30aH4Xaeljn2Gq_YnydcHsjnpFk_xWUm8yAzqb8EpBV8CQkcJ-xhDp_qWzuCA1QNIBkTYPsFFhCKLpCMSsMZZNIubVNwUt-6pW5z3fmyLQl1SLYSteBoI3R882TEpmJRODlsvRFrwS70z43-0m00?></g></svg>